<?xml version="1.0" encoding="utf-8"?><svg id="Calque_1" data-name="Calque 1" xmlns="http://www.w3.org/2000/svg" viewBox="0 0 88.93 60.66"><defs><style>.cls-1{fill:#fff;}.cls-2{fill:#51ad32;}.cls-3{fill:#004f9e;}</style></defs><title>Plan de travail 1</title><rect class="cls-1" x="0.01" width="88.92" height="58.79"/><path class="cls-2" d="M0,0V31.32c2-.89,17.68-7.35,42.63-2.85l2.32.38-4.6-12.76h5.28L48.29,25h.11L51,16.09h5L51.33,29.64c1.53.13,3.78.28,6.53.34V16.09h4.62V18h.11a4.44,4.44,0,0,1,4.07-2.2c2.86,0,5.39,1.43,5.39,5.64v7.94c1.3-.15,2.62-.32,4-.54V19.5H73.48V16.09H76v-.88c0-4.07,1.32-5.83,5.94-5.83h2.2V12.9H82.94c-1.54,0-2.09.44-2.09,2v1.21h2.86V19.5H80.85v8.41c1.8-.39,3.62-.85,5.44-1.38,1.32-.37,2.2-.67,2.59-.8V0Z"/><path class="cls-2" d="M65.12,19.28c-1.43,0-2.42,1.1-2.42,3.08V30c1.43,0,2.94-.1,4.51-.2V21.93c0-2-.88-2.64-2.09-2.64"/><path class="cls-3" d="M50.88,33.4c-12.71-1-10.61-2.62-24.68-4.38A59.53,59.53,0,0,0,0,31.65v29H88.87V26c-17.16,6.45-25.17,8.4-38,7.36"/><path class="cls-1" d="M23,43.49h1V44h0a1.16,1.16,0,0,1,1.09-.59,1.31,1.31,0,0,1,1.4,1.5v2.16H25.46V45c0-.6-.26-.81-.64-.81s-.75.35-.75,1v1.89H23Z"/><path class="cls-1" d="M28.75,45l.68-.1c.35-.05.45-.1.45-.28s-.17-.53-.58-.53a.56.56,0,0,0-.64.53h-1c.07-.86.78-1.26,1.66-1.26,1.12,0,1.67.44,1.67,1.3v2.37h-1v-.44h0a1.31,1.31,0,0,1-1.17.53c-.82,0-1.22-.42-1.22-1s.38-1,1.23-1.09m1.13.3a.47.47,0,0,1-.34.17l-.49.07c-.33.05-.46.2-.46.42s.18.4.49.4a.74.74,0,0,0,.8-.78Z"/><polygon class="cls-1" points="31.58 43.49 32.77 43.49 33.56 46.02 33.6 46.02 34.39 43.49 35.5 43.49 34.24 47.07 32.88 47.07 31.58 43.49"/><path class="cls-1" d="M36.22,42.65h1.14v-1H36.22Zm0,4.42h1.09V43.48H36.25Z"/><path class="cls-1" d="M39.45,47.51c0,.3.31.5.77.5.64,0,.92-.34.92-1.13v-.3h0a1.2,1.2,0,0,1-1.16.59,1.64,1.64,0,0,1-1.63-1.85A1.71,1.71,0,0,1,40,43.4a1.15,1.15,0,0,1,1.1.59h0v-.5h1v3.38c0,1.33-.73,1.87-2,1.87-1.07,0-1.75-.38-1.79-1.23Zm.81-1.15c.49,0,.81-.41.83-1v-.1c0-.62-.34-1-.83-1s-.81.46-.81,1.11.31,1,.81,1"/><path class="cls-1" d="M44.43,45l.68-.1c.35-.05.45-.1.45-.28s-.17-.53-.58-.53a.56.56,0,0,0-.64.53h-1c.07-.86.78-1.26,1.66-1.26,1.12,0,1.67.44,1.67,1.3v2.37h-1v-.44h0a1.3,1.3,0,0,1-1.16.53c-.82,0-1.22-.42-1.22-1s.37-1,1.23-1.09m1.13.3a.47.47,0,0,1-.34.17l-.49.07c-.33.05-.46.2-.46.42s.17.4.49.4a.74.74,0,0,0,.8-.78Z"/><path class="cls-1" d="M47.83,41.7h1.08v1.09c0,.24,0,.73,0,1.2h0a1.2,1.2,0,0,1,1.16-.59,1.64,1.64,0,0,1,1.63,1.85A1.71,1.71,0,0,1,50,47.16a1.15,1.15,0,0,1-1.1-.59h0v.5h-1Zm1.92,4.66c.51,0,.81-.46.81-1.11s-.31-1-.81-1-.82.41-.84,1v0c0,.64.33,1.08.84,1.08"/><rect class="cls-1" x="52.68" y="41.7" width="1.08" height="5.37"/><path class="cls-1" d="M56.66,43.4a1.68,1.68,0,0,1,1.85,1.82v.26H55.84c.06.6.36.9.85.9a.71.71,0,0,0,.72-.41h1.05a1.66,1.66,0,0,1-1.79,1.17,1.71,1.71,0,0,1-1.94-1.86,1.79,1.79,0,0,1,1.93-1.9m-.79,1.45h1.52c-.07-.49-.3-.71-.73-.71a.78.78,0,0,0-.79.71"/><path class="cls-1" d="M60.25,46c0,.34.35.43.69.43s.7-.13.7-.38-.18-.32-.52-.37l-.64-.1c-.68-.1-1.15-.37-1.15-1S60,43.4,61,43.4s1.63.36,1.63,1.08h-1c0-.3-.31-.4-.64-.4s-.6.15-.6.35.12.3.54.37l.64.1c.6.09,1.18.32,1.18,1s-.76,1.23-1.79,1.23-1.71-.34-1.71-1.12Z"/><path class="cls-1" d="M46.75,51.37a1.15,1.15,0,0,1,1.1.59h0a11.32,11.32,0,0,1-.05-1.2V49.66h1.09V55h-1v-.5h0a1.2,1.2,0,0,1-1.16.59,1.64,1.64,0,0,1-1.63-1.85,1.71,1.71,0,0,1,1.69-1.91m.25,3c.51,0,.83-.43.83-1.08s-.32-1.08-.83-1.08-.81.46-.81,1.11.31,1,.81,1"/><path class="cls-1" d="M51.82,51.37a1.68,1.68,0,0,1,1.85,1.83v.26H51c.06.6.36.9.85.9a.7.7,0,0,0,.72-.41h1.05a1.66,1.66,0,0,1-1.79,1.17,1.71,1.71,0,0,1-1.94-1.85,1.79,1.79,0,0,1,1.93-1.9M51,52.82h1.52c-.07-.49-.3-.71-.73-.71a.78.78,0,0,0-.79.71"/><polygon class="cls-1" points="56.55 49.98 60.23 49.98 60.23 50.92 57.68 50.92 57.68 52.27 59.74 52.27 59.74 53.19 57.68 53.19 57.68 55.03 56.55 55.03 56.55 49.98"/><path class="cls-1" d="M60.88,51.45h1V52h0a1,1,0,0,1,.94-.61.85.85,0,0,1,.5.15l-.19.93a1,1,0,0,0-.44-.12c-.53,0-.79.45-.79,1.06V55H60.88Z"/><path class="cls-1" d="M65.07,53l.68-.1c.35-.05.45-.1.45-.28s-.17-.53-.58-.53a.56.56,0,0,0-.64.53H64c.07-.86.78-1.26,1.66-1.26,1.12,0,1.67.44,1.67,1.3V55h-1v-.44h0a1.3,1.3,0,0,1-1.17.53c-.82,0-1.21-.42-1.21-1s.37-1,1.23-1.09m1.13.3a.46.46,0,0,1-.34.17l-.49.07c-.33.05-.46.21-.46.43s.17.4.49.4a.74.74,0,0,0,.8-.78Z"/><path class="cls-1" d="M68.48,51.45h1V52h0a1.17,1.17,0,0,1,1.09-.6,1.31,1.31,0,0,1,1.4,1.5V55H70.94V53c0-.6-.26-.81-.64-.81s-.75.34-.75,1V55H68.48Z"/><path class="cls-1" d="M74.91,51.37a1.58,1.58,0,0,1,1.78,1.35H75.61a.66.66,0,0,0-.7-.55c-.5,0-.83.45-.83,1.08s.32,1.08.83,1.08a.66.66,0,0,0,.7-.55h1.07c-.07.73-.64,1.35-1.78,1.35A1.74,1.74,0,0,1,73,53.24a1.78,1.78,0,0,1,1.95-1.88"/><path class="cls-1" d="M79.36,51.37a1.68,1.68,0,0,1,1.85,1.83v.26H78.54c.06.6.36.9.85.9a.7.7,0,0,0,.72-.41h1.05a1.66,1.66,0,0,1-1.79,1.17,1.71,1.71,0,0,1-1.94-1.85,1.79,1.79,0,0,1,1.93-1.9m-.79,1.45h1.52c-.07-.49-.3-.71-.73-.71a.78.78,0,0,0-.79.71"/><polygon class="cls-1" points="12.99 35.39 14.19 35.39 15.48 39.39 15.51 39.39 16.8 35.39 17.97 35.39 16.16 40.44 14.79 40.44 12.99 35.39"/><path class="cls-1" d="M20,36.77a1.78,1.78,0,0,1,2,1.88,1.8,1.8,0,0,1-2,1.88,1.78,1.78,0,0,1-2-1.87,1.81,1.81,0,0,1,2-1.88m0,3c.51,0,.84-.41.84-1.08s-.33-1.07-.84-1.07-.84.4-.84,1.07.33,1.08.84,1.08"/><path class="cls-1" d="M22.94,36h1.14v-1H22.94Zm0,4.42h1.09V36.86H23Z"/><path class="cls-1" d="M27,36.77A1.68,1.68,0,0,1,28.8,38.6v.26H26.13c.06.59.36.9.85.9a.7.7,0,0,0,.72-.41h1.05A1.65,1.65,0,0,1,27,40.53,1.71,1.71,0,0,1,25,38.67,1.79,1.79,0,0,1,27,36.77m-.79,1.45h1.52c-.07-.48-.3-.71-.73-.71a.79.79,0,0,0-.79.71"/><path class="cls-1" d="M30.54,39.41c0,.34.35.43.69.43s.7-.13.7-.38-.18-.32-.51-.37l-.64-.1c-.68-.1-1.15-.37-1.15-1s.7-1.2,1.66-1.2,1.63.37,1.63,1.09h-1c0-.3-.31-.41-.64-.41s-.6.15-.6.35.13.3.54.37l.64.09c.6.1,1.18.33,1.18,1s-.76,1.22-1.79,1.22-1.71-.34-1.71-1.12Z"/></svg>